# xmcd CD Database Entry
#
# Track frame offsets:
# 150
# 12720
# 25985
# 39590
# 52922
# 67865
# 80395
# 92982
# 105117
# 117667
# 128905
# 142135
# 154665
# 165697
# 177422
# 192132
# 205020
# 218905
# 231800
# 245477
#
# Disc length: 3436 seconds
#
# Revision: 1
# Processed by: cddbd v1.4PL0 Copyright (c) Steve Scherf et al.
# Submitted via: tcd 2.0b
#
DISCID=140d6a14
DTITLE=Blind Lemon Jefferson - Blind Lemon Jefferson
DYEAR=1900
DGENRE=
TTITLE0=Rambler Blues
TTITLE1=See That My Grave Is Kept Clean
TTITLE2=Matchbox Blues
TTITLE3=Hot Dogs
TTITLE4=Hangman's Blues
TTITLE5=He Arose From The Dead
TTITLE6=Blind Lemon's Penitentiary Blues
TTITLE7=That Crawlin' Baby Blues
TTITLE8=One Dime Blues
TTITLE9=Rising High Water Blues
TTITLE10=Rabbit Foot Blues
TTITLE11=Prison Cell Blues
TTITLE12=Lonesome House Blues
TTITLE13=Where Shall I Be?
TTITLE14=Lock Step Blues
TTITLE15=Bad Luck Blues
TTITLE16=Shuckin' Sugar Blues
TTITLE17=Beggin' Back
TTITLE18=Broke And Hungry
TTITLE19=Gone Dead On You Blues
EXTD=
EXTT0=
EXTT1=
EXTT2=
EXTT3=
EXTT4=
EXTT5=
EXTT6=
EXTT7=
EXTT8=
EXTT9=
EXTT10=
EXTT11=
EXTT12=
EXTT13=
EXTT14=
EXTT15=
EXTT16=
EXTT17=
EXTT18=
EXTT19=
PLAYORDER=
